<?xml version="1.0" encoding="UTF-8" standalone="no"?>
<svg
   id="Warstwa_1"
   data-name="Warstwa 1"
   viewBox="0 0 226.31 247.13"
   version="1.1"
   xmlns="http://www.w3.org/2000/svg"
   xmlns:svg="http://www.w3.org/2000/svg">
  <defs
     id="defs4">
    <style
       id="style2">.cls-1{fill:#3aaa35;}.cls-2{fill:#fff;}</style>
  </defs>
  <path
     class="cls-1"
     d="M576.62,109.75a31.37,31.37,0,0,0-5.52-17.82L524.38,16.72a4.71,4.71,0,0,0-4-2.22H399.82A4.71,4.71,0,0,0,395.67,17L354.38,94.37a31.45,31.45,0,0,0,3.32,35.73,4.62,4.62,0,0,1,1.05,3V256.92a4.7,4.7,0,0,0,4.7,4.7H562.08a4.69,4.69,0,0,0,4.7-4.7V134.54a4.64,4.64,0,0,1,1.26-3.19A31.36,31.36,0,0,0,576.62,109.75ZM381.81,233.86V145.74a4.74,4.74,0,0,1,4.19-4.67,31.48,31.48,0,0,0,19.24-10.17,4.68,4.68,0,0,1,6.93,0,31.48,31.48,0,0,0,47.54-1.15,4.71,4.71,0,0,1,7.32,0A31.48,31.48,0,0,0,514.92,131a4.71,4.71,0,0,1,7,0,31.41,31.41,0,0,0,17.85,9.75,4.68,4.68,0,0,1,4,4.58v88.49a4.7,4.7,0,0,1-4.7,4.7H386.52A4.7,4.7,0,0,1,381.81,233.86Z"
     transform="translate(-350.31 -14.5)"
     id="path6" />
  <path
     class="cls-2"
     d="M563.87,95.15h.18L519,20.06H401.44L364.25,93.74A21,21,0,0,0,358.47,108c0,13.09,13,23.71,29,23.71,10.69,0,20-4.75,25-11.8,5,7,14.35,11.8,25,11.8,11.4,0,21.27-5.4,26-13.25,4.73,7.85,14.59,13.25,26,13.25,10.66,0,20-4.72,25-11.73,5,7,14.34,11.73,25,11.73,16,0,29-10.62,29-23.71A20.58,20.58,0,0,0,563.87,95.15Z"
     transform="translate(-350.31 -14.5)"
     id="path8" />
  <path
     class="cls-1"
     d="M558.14,91.82h.16L515.83,25.34H405L369.92,90.58a18,18,0,0,0-5.45,12.59c0,11.59,12.23,21,27.31,21,10.08,0,18.88-4.2,23.61-10.44,4.73,6.24,13.53,10.44,23.61,10.44,10.76,0,20.06-4.78,24.51-11.73,4.45,6.95,13.75,11.73,24.51,11.73,10.05,0,18.82-4.17,23.57-10.39,4.74,6.22,13.52,10.39,23.57,10.39,15.08,0,27.31-9.4,27.31-21A17.67,17.67,0,0,0,558.14,91.82Z"
     transform="translate(-350.31 -14.5)"
     id="path10" />
  <path
     class="cls-2"
     d="M552.14,88.19h.15L513.23,28.12H411.29L379.05,87.06a16.12,16.12,0,0,0-5,11.37c0,10.48,11.25,19,25.12,19,9.27,0,17.36-3.79,21.71-9.43,4.36,5.64,12.45,9.43,21.72,9.43,9.89,0,18.44-4.32,22.54-10.59,4.09,6.27,12.65,10.59,22.54,10.59,9.24,0,17.31-3.77,21.67-9.38,4.36,5.61,12.43,9.38,21.68,9.38,13.87,0,25.11-8.49,25.11-19A15.72,15.72,0,0,0,552.14,88.19Z"
     transform="translate(-350.31 -14.5)"
     id="path12" />
  <rect
     class="cls-1"
     x="141.31"
     y="158"
     width="34.13"
     height="69.38"
     rx="4.81"
     id="rect14" />
  <rect
     class="cls-1"
     x="417.56"
     y="138.38"
     width="34.13"
     height="69.37"
     rx="2.59"
     transform="translate(257.37 -276.06) rotate(90)"
     id="rect16" />
  <ellipse
     class="cls-2"
     cx="147.5"
     cy="188.13"
     rx="4.06"
     ry="2.5"
     id="ellipse18" />
  <rect
     class="cls-2"
     x="53.75"
     y="147.31"
     width="28.31"
     height="24.19"
     rx="3"
     id="rect20" />
  <rect
     class="cls-2"
     x="86.45"
     y="147.31"
     width="28.31"
     height="24.19"
     rx="2.84"
     id="rect22" />
</svg>
